<svg width="24" height="24" viewBox="0 0 24 24" fill="none" xmlns="http://www.w3.org/2000/svg">
<path fill-rule="evenodd" clip-rule="evenodd" d="M16.4562 9.97581C16.4562 13.5548 13.5548 16.4562 9.97581 16.4562C6.39681 16.4562 3.49546 13.5548 3.49546 9.97581C3.49546 6.39681 6.39681 3.49546 9.97581 3.49546C13.5548 3.49546 16.4562 6.39681 16.4562 9.97581ZM17.9516 9.97581C17.9516 14.3807 14.3807 17.9516 9.97581 17.9516C5.57089 17.9516 2 14.3807 2 9.97581C2 5.57089 5.57089 2 9.97581 2C14.3807 2 17.9516 5.57089 17.9516 9.97581ZM22.0001 20.9425L16.9548 15.8972L15.8973 16.9546L20.9427 22L22.0001 20.9425Z" fill="black"/>
</svg>
